<?xml version="1.0" encoding="utf-8"?>
<!-- Generator: Adobe Illustrator 16.0.0, SVG Export Plug-In . SVG Version: 6.00 Build 0)  -->
<!DOCTYPE svg PUBLIC "-//W3C//DTD SVG 1.1//EN" "http://www.w3.org/Graphics/SVG/1.1/DTD/svg11.dtd">
<svg version="1.1" xmlns="http://www.w3.org/2000/svg" xmlns:xlink="http://www.w3.org/1999/xlink" x="0px" y="0px" width="100px"
	 height="100px" viewBox="0 0 100 100" enable-background="new 0 0 100 100" xml:space="preserve">
<g id="Layer_1">
	<g id="Layer_1_1_">
		<g id="Layer_8" display="none">
			<rect x="-10" y="-6" display="inline" stroke="#000000" stroke-miterlimit="10" width="129" height="122"/>
		</g>
		<g id="Layer_9">
		</g>
		<g id="Rounded_Rectangle_17_xA0_Image_1_">
		</g>
		<g id="Rounded_Rectangle_15_1_" enable-background="new    ">
		</g>
		<g id="Rounded_Rectangle_15_copy_1_" enable-background="new    ">
		</g>
		<g id="Rounded_Rectangle_12_1_" enable-background="new    ">
		</g>
		<g id="Rounded_Rectangle_12_copy_1_" enable-background="new    ">
		</g>
		<g id="Rounded_Rectangle_9_copy_2_1_" enable-background="new    ">
		</g>
	</g>
</g>
<g id="Layer_2_1_">
	<path d="M97.625,49.375C97.625,75.678,76.303,97,50,97C23.697,97,2.375,75.678,2.375,49.375S23.697,1.75,50,1.75
		C76.303,1.75,97.625,23.072,97.625,49.375z M78.264,49.188L51.955,22.879l-4.243,4.243l22.067,22.066L47.316,71.65l4.242,4.242
		L78.264,49.188z M57.972,49.177L31.663,22.868l-4.242,4.243l22.066,22.066L27.024,71.64l4.242,4.242L57.972,49.177z"/>
</g>
</svg>
