<?xml version="1.0" encoding="utf-8"?>
<!-- Generator: Adobe Illustrator 16.0.0, SVG Export Plug-In . SVG Version: 6.00 Build 0)  -->
<!DOCTYPE svg PUBLIC "-//W3C//DTD SVG 1.1//EN" "http://www.w3.org/Graphics/SVG/1.1/DTD/svg11.dtd">
<svg version="1.1" xmlns="http://www.w3.org/2000/svg" xmlns:xlink="http://www.w3.org/1999/xlink" x="0px" y="0px" width="100px"
	 height="100px" viewBox="0 0 100 100" enable-background="new 0 0 100 100" xml:space="preserve">
<g id="Layer_1">
	<g id="Layer_1_2_">
		<g id="Layer_1_1_">
			<g id="Layer_8" display="none">
				<rect x="-10" y="-6" display="inline" stroke="#000000" stroke-miterlimit="10" width="129" height="122"/>
			</g>
			<g id="Layer_9">
			</g>
			<g id="Rounded_Rectangle_17_xA0_Image_1_">
			</g>
			<g id="Rounded_Rectangle_15_1_" enable-background="new    ">
			</g>
			<g id="Rounded_Rectangle_15_copy_1_" enable-background="new    ">
			</g>
			<g id="Rounded_Rectangle_12_1_" enable-background="new    ">
			</g>
			<g id="Rounded_Rectangle_12_copy_1_" enable-background="new    ">
			</g>
			<g id="Rounded_Rectangle_9_copy_2_1_" enable-background="new    ">
			</g>
		</g>
	</g>
</g>
<g id="Layer_2">
	<path d="M97.625,50.246c0,26.303-21.322,47.625-47.625,47.625c-26.303,0-47.625-21.322-47.625-47.625S23.697,2.621,50,2.621
		C76.303,2.621,97.625,23.943,97.625,50.246z M73.148,51.459L58.81,58.928l3.816,2.673c-5.235,6.119-14.068,7.44-20.822,2.695
		c-4.555-3.176-6.921-7.493-7.054-12.846l-6.573,0.141c0.172,7.468,3.724,13.874,10.112,18.325
		c9.712,6.809,22.553,4.666,29.777-4.567l4.125,2.881L73.148,51.459z M38.731,38.934c5.237-6.121,14.074-7.444,20.815-2.736
		c4.557,3.195,7.223,7.342,7.354,12.695l6.278,0.163c-0.175-7.472-3.714-14.021-10.086-18.485
		c-9.707-6.797-22.558-4.661-29.783,4.566l-4.121-2.892l-0.971,16.834l14.345-7.466L38.731,38.934z"/>
</g>
</svg>
