<?xml version="1.0" encoding="utf-8"?>
<!-- Generator: Adobe Illustrator 16.0.0, SVG Export Plug-In . SVG Version: 6.00 Build 0)  -->
<!DOCTYPE svg PUBLIC "-//W3C//DTD SVG 1.1//EN" "http://www.w3.org/Graphics/SVG/1.1/DTD/svg11.dtd">
<svg version="1.1" xmlns="http://www.w3.org/2000/svg" xmlns:xlink="http://www.w3.org/1999/xlink" x="0px" y="0px" width="100px"
	 height="100px" viewBox="0 0 100 100" enable-background="new 0 0 100 100" xml:space="preserve">
<g id="Layer_1">
	<g id="Layer_1_2_">
		<g id="Layer_1_1_">
			<g id="Layer_8" display="none">
				<rect x="-10" y="-6" display="inline" stroke="#000000" stroke-miterlimit="10" width="129" height="122"/>
			</g>
			<g id="Layer_9">
			</g>
			<g id="Rounded_Rectangle_17_xA0_Image_1_">
			</g>
			<g id="Rounded_Rectangle_15_1_" enable-background="new    ">
			</g>
			<g id="Rounded_Rectangle_15_copy_1_" enable-background="new    ">
			</g>
			<g id="Rounded_Rectangle_12_1_" enable-background="new    ">
			</g>
			<g id="Rounded_Rectangle_12_copy_1_" enable-background="new    ">
			</g>
			<g id="Rounded_Rectangle_9_copy_2_1_" enable-background="new    ">
			</g>
		</g>
	</g>
</g>
<g id="Layer_2">
	<path d="M95,50.246c0,24.853-20.147,45-45,45c-24.854,0-45-20.147-45-45c0-24.853,20.146-45,45-45
		C74.853,5.246,95,25.393,95,50.246z M71.872,51.393l-13.548,7.057l3.605,2.525c-4.946,5.782-13.292,7.03-19.674,2.547
		c-4.304-3.001-6.54-7.08-6.665-12.138l-6.21,0.133c0.163,7.057,3.519,13.109,9.555,17.315c9.177,6.434,21.31,4.408,28.135-4.315
		l3.898,2.722L71.872,51.393z M39.352,39.558c4.948-5.784,13.298-7.034,19.667-2.585c4.306,3.019,6.825,6.938,6.948,11.996
		l5.933,0.153c-0.165-7.06-3.51-13.248-9.53-17.466c-9.172-6.423-21.314-4.404-28.141,4.314l-3.894-2.733l-0.917,15.907
		l13.555-7.055L39.352,39.558z"/>
</g>
</svg>
