<?xml version="1.0" encoding="utf-8"?>
<!-- Generator: Adobe Illustrator 16.0.0, SVG Export Plug-In . SVG Version: 6.00 Build 0)  -->
<!DOCTYPE svg PUBLIC "-//W3C//DTD SVG 1.1//EN" "http://www.w3.org/Graphics/SVG/1.1/DTD/svg11.dtd">
<svg version="1.1" id="Layer_1" xmlns="http://www.w3.org/2000/svg" xmlns:xlink="http://www.w3.org/1999/xlink" x="0px" y="0px"
	 width="100px" height="100px" viewBox="0 0 100 100" enable-background="new 0 0 100 100" xml:space="preserve">
<g id="Ohp7hO.tif">
	<g>
		<path fill="none" d="M18.424,20.563c-0.001,0.128-0.002,0.255-0.003,0.382c-0.403,0-0.806,0-1.613,0
			c1.113,0.681,1.816,1.247,2.918,0.96c-0.185-0.28-0.256-0.45-0.38-0.563c-0.172-0.155-0.383-0.268-0.577-0.398
			c-0.122-0.12-0.244-0.239-0.367-0.36c-0.043-0.031-0.086-0.062-0.13-0.095C18.323,20.514,18.374,20.538,18.424,20.563z
			 M25.835,47.891c-0.009,0.094-0.019,0.188-0.027,0.283C25.818,48.08,25.827,47.985,25.835,47.891z M11.347,29.487
			c-0.095-0.07-0.164-0.121-0.233-0.171c-0.029,0.041-0.059,0.083-0.089,0.124C11.12,29.454,11.215,29.468,11.347,29.487z"/>
		<path fill-rule="evenodd" clip-rule="evenodd" d="M12.995,41.166c-0.124-0.363-0.248-0.727-0.372-1.09
			c0.03-0.044,0.061-0.089,0.091-0.133c-0.024,0.051-0.048,0.101-0.072,0.151c-0.543,0.165-1.086,0.331-1.893,0.577
			c0.455-0.7,0.779-1.201,1.234-1.902c-0.408,0.11-0.605,0.164-0.803,0.218l0.02,0.02c-0.007-0.246-0.015-0.493-0.022-0.739
			c0.122-0.121,0.243-0.242,0.365-0.363c0.03-0.044,0.06-0.087,0.089-0.131c-0.023,0.05-0.046,0.1-0.07,0.149
			c-0.122,0.121-0.244,0.243-0.365,0.364c-0.246,0.114-0.491,0.228-0.736,0.342l0.016,0.019c-0.008-0.248-0.016-0.494-0.023-0.741
			c0.037-0.045,0.074-0.09,0.111-0.134c-0.03,0.051-0.061,0.103-0.091,0.154c-0.248,0.239-0.495,0.479-0.743,0.72l0.022-0.02
			c-0.126,0-0.252,0-0.378-0.001l0.02,0.019c-0.248-0.126-0.495-0.253-0.742-0.38l0.02,0.02c0.241-0.246,0.482-0.492,0.723-0.739
			l-0.019,0.02c0.103-0.17,0.205-0.341,0.364-0.606c-0.9-0.239-1.829,0.538-2.417-0.382c0-0.358,0-0.702,0-1.288
			C6.535,35.789,5.884,36.203,5,36.767c0.642-1.52,1.914-1.75,2.928-2.219c0.548-0.254,1.214-0.23,1.625-0.808
			c0.03-0.042,0.368,0.135,0.563,0.209c-0.062,0.053-0.124,0.104-0.094,0.079c-0.024,0.031,0.025-0.033,0.075-0.098
			c0.875-0.053,1.751-0.104,2.702-0.162c-0.376-0.789-1.175-0.368-1.794-0.731c-0.036-0.121-0.101-0.337-0.165-0.553l-0.017,0.021
			c0.338-0.28,0.677-0.562,1.12-0.93c0.892,0.253,1.943,0.55,2.995,0.848c-0.444-0.835-1.16-0.994-1.757-1.064
			c-0.552-0.478-1.008-0.873-1.492-1.292c0.103-0.201,0.208-0.411,0.28-0.553c1.041-0.116,2.016-0.226,2.992-0.336
			c0-0.336,0-0.558,0-0.794c0.346,0.047,0.639,0.087,0.931,0.127c0.046,0.058,0.091,0.114,0.081,0.103
			c0.012,0.01-0.044-0.037-0.099-0.084c-0.046-0.172-0.092-0.345-0.179-0.673c0.73,0.214,1.384,0.405,2.163,0.634
			c0.329-0.151,0.745-0.345,1.125-0.52c0.02-1.297-1.285-1.394-1.783-2.248c0.475-0.062,0.921-0.12,1.392-0.181
			c-0.119-0.345-0.207-0.597-0.408-1.178c0.609,0.556,0.978,0.892,1.458,1.329c0.416-0.068,0.918-0.15,1.61-0.264
			c-0.264-0.525-0.437-0.87-0.66-1.315c0.516-1.157,0.024-2.213-0.904-3.323c0.497-0.084,0.74-0.125,1.057-0.179
			c0.133,0.545,0.242,0.996,0.383,1.575c0.158-0.651,0.289-1.188,0.463-1.903c0.824,0.632,0.839,1.357,0.789,2.107l0.017-0.02
			c-0.099,0.499-0.259,0.996-0.278,1.5c-0.019,0.455,0.116,0.918,0.202,1.502c0.802,0.146,1.661,0.302,2.604,0.474
			c0.627-0.166,1.342-0.355,2.073-0.549c-0.473-0.396-0.909-0.759-1.345-1.123l-0.019,0.022c0.582,0.066,0.963-0.245,1.407-0.582
			c0.27-0.205,0.823-0.037,1.303-0.205c-0.872-0.354-1.733-0.638-2.403-1.607c0.561-0.03,0.937-0.051,1.381-0.075
			c0.069-0.139,0.171-0.344,0.282-0.566c0.335,0.153,0.67,0.308,1.207,0.554c-0.486-0.932-0.857-1.642-1.228-2.353
			c0.083-0.073,0.166-0.146,0.249-0.219c0.482,0.443,0.965,0.885,1.609,1.477c0.382-0.676,0.719-1.272,0.985-1.743
			c0.862-0.513,1.659-0.985,2.521-1.498c0,0.243,0,0.444,0,0.799c0.581-0.316,1.103-0.601,1.802-0.982
			c0.021,1.012-0.78,1.388-1.168,2.195c0.989-0.526,1.792-0.953,2.515-1.338c0.763,0.27,1.374,0.484,2.219,0.783
			c-0.804,0.473-1.401,0.823-1.985,1.167c0.014,0.302,0.026,0.572,0.05,1.08c-1.081-0.204-1.995-0.376-3.315-0.624
			c-0.136,0.052-0.672,0.259-1.177,0.453c0.141,1.321,0.266,2.486,0.409,3.835c1.093-0.454,2.077-0.538,2.928,0.238
			c0.305-0.227,0.532-0.395,0.771-0.572c0.326,0.213,0.657,0.43,1.033,0.676c-0.086-0.779-0.162-1.462-0.261-2.354
			c0.538,0.174,0.85,0.275,1.162,0.376l-0.017-0.019c0.053,0.171,0.104,0.34,0.223,0.723c0.089-0.402,0.125-0.562,0.16-0.722
			l-0.02,0.022c0.064-0.068,0.13-0.137,0.195-0.205c-0.06-0.057-0.128-0.119-0.195-0.183l0.019,0.018
			c-0.23-0.398-0.46-0.797-0.69-1.195c0.363-0.211,1.177-0.408,1.49-0.387c1.058-0.838,0.71-2.166,1.105-3.308
			c0.41,0.131,0.779,0.25,1.251,0.401c-0.065-0.256-0.062-0.44-0.15-0.555c-0.728-0.941-0.721-0.944-0.503-2.226
			c0.387,0.504,0.699,0.915,1.018,1.321c0.32,0.408,0.649,0.811,1.087,1.356c0.597-0.822,1.163-1.46,2.204-1.139
			c0.106,0.149,0.256,0.362,0.367,0.519c0.644-0.435,1.26-0.851,2.022-1.366c0.161,1.43-1.031,1.845-1.452,2.705
			c0.91,0.042,0.91,0.042,1.919-1.278c0.747-0.09,1.492-0.179,2.461-0.295c-0.272,0.36-0.421,0.558-0.569,0.755
			c-0.615,0-1.082,0.22-1.409,0.939c0.843,0.03,1.154-0.411,1.391-0.958c0.541,0,1.083,0,1.61,0
			c0.757,0.612,1.501,1.215,2.426,1.963c-0.609,0.39-1.075,0.688-1.434,0.916c-1.199-0.14-1.914-0.771-2.608-1.437
			c0.168-0.032,0.337-0.063,0.505-0.096c-0.026-0.052-0.053-0.103-0.08-0.153c-0.136,0.09-0.271,0.18-0.407,0.271
			c-0.551,0.202-1.102,0.403-1.619,0.593c-0.919-0.24-1.807-0.473-2.836-0.742c-0.25,0.647-0.434,1.123-0.617,1.597l0.022-0.025
			c-0.129,0.129-0.259,0.258-0.387,0.387l0.022-0.021c-0.548,0.574-1.097,1.148-1.724,1.807c-0.026,0.297-0.062,0.696-0.097,1.096
			l0.012-0.014c-0.366,0.488-0.732,0.977-1.098,1.465c-0.042-0.057-0.084-0.113-0.074-0.099c-0.014-0.012,0.04,0.034,0.093,0.079
			c-0.05,0.382-0.101,0.763-0.155,1.166c1.028,0.411,1.961,0.784,2.919,1.167c0.056-0.281,0.08-0.396,0.103-0.51l0.022-0.019
			c0.45,0.103,0.899,0.205,1.349,0.308c-0.043,0.061-0.085,0.122-0.127,0.184c0.787,0.673,1.517,1.428,2.369,2.003
			c3.619,2.441,6.575,5.58,9.457,8.806c1.269,1.42,2.569,2.812,3.924,4.294c0.6-0.507,1.136-0.96,1.673-1.414
			c2.809-0.489,5.088,0.584,7.075,2.385c3.354,3.041,6.049,6.623,8.39,10.486c0.836,1.379,1.755,2.708,2.625,4.068
			c0.546,0.855,1.091,1.714,1.602,2.592c0.631,1.087,1.26,2.177,1.828,3.298c1.583,3.122,3.678,5.991,4.622,9.435
			c0.185,0.676,0.63,1.279,1.078,2.157c0,0.336-0.047,0.938,0.014,1.528c0.055,0.526,0.115,1.107,0.375,1.545
			c0.732,1.231,1.513,2.444,2.385,3.58c0.533,0.693,1.271,1.231,1.917,1.839L95,84.506c-1.012-0.021-1.6-0.734-2.236-1.369
			c-1.142-1.137-2.279-2.28-3.427-3.411c-0.211-0.209-0.444-0.416-0.705-0.553c-2.628-1.377-4.651-3.508-6.802-5.475
			c-0.391-0.357-0.668-0.841-1-1.264c-2.322-2.972-4.615-5.967-6.977-8.906c-1.876-2.336-3.912-4.545-5.73-6.923
			c-1.151-1.506-2.51-2.758-4.021-3.815c-2.64-1.848-4.079-4.296-4.21-7.443c-3.94-2.685-7.938-5.093-12.284-6.864
			c-0.653-0.267-1.376-0.361-2.067-0.535l-0.075-0.053c-1.339-0.478-2.191-0.282-3.322,0.753c0.873,0,1.76,0,2.647,0l-0.018-0.017
			c-1.289,1.387-2.138,3.152-3.825,4.216c-0.562,0.354-0.876,1.119-1.264,1.724c-0.708,1.104-1.384,2.228-2.006,3.232
			c-1.269,0.231-2.35,0.429-3.636,0.663c0.221-0.7,0.365-1.155,0.588-1.86c-1.555,0.223-2.956,0.424-4.539,0.65
			c-0.304,0.421-0.718,0.992-1.174,1.621c-0.3,0-0.642,0-1.075,0c-0.045-0.672-0.091-1.368-0.135-2.032
			c-1.454-0.846-2.394,0.37-3.641,0.719c-0.275,0.681-0.561,1.388-0.792,1.96c0.442,0.859,0.799,1.552,1.192,2.316
			c-0.932,0.926-1.05,2.091-0.992,3.324c0.033,0.692,0.2,1.441-0.468,2.166c-0.181-0.284-0.315-0.497-0.45-0.71
			c-0.111,0.198-0.222,0.396-0.346,0.614c-0.257-0.354-0.486-0.669-0.92-1.266c0.18,1.69,1.029,3.019,0.269,4.556
			c-0.379-0.43-0.707-0.8-1.212-1.37c-0.163,0.657-0.273,1.102-0.415,1.677c-0.351-0.141-0.672-0.27-1.097-0.44
			c0.096-0.268,0.192-0.539,0.289-0.81c0.121-0.12,0.24-0.24,0.36-0.361c0.035-0.043,0.069-0.086,0.104-0.129
			c-0.027,0.049-0.056,0.1-0.083,0.149c-0.121,0.12-0.241,0.239-0.361,0.359c-0.239,0-0.478,0-0.89,0
			c0.137-0.557,0.255-1.035,0.393-1.596c-0.412-0.123-0.83-0.249-1.347-0.404c0.347-0.755,0.644-1.401,0.991-2.156
			c-0.675,0.033-1.265,0.062-2.168,0.105c1.399-1.608,3.046-2.667,3.362-4.637c0.031-0.045,0.062-0.09,0.092-0.135
			c-0.024,0.051-0.048,0.103-0.072,0.154c-0.4,0.075-0.801,0.151-1.273,0.24c0.347-1.442,0.678-2.814,1.074-4.462
			c-0.748,0.237-1.208,0.383-1.92,0.609c0.56-0.929,0.98-1.625,1.441-2.39c-0.085-0.182-0.221-0.478-0.297-0.642
			c-1.179-0.06-2.287-0.117-3.486-0.178c0.034-0.477,0.057-0.809,0.087-1.229c-0.256-0.027-0.515-0.056-0.799-0.086
			c0-0.336,0-0.675,0-1.011C13.856,41.564,13.426,41.365,12.995,41.166L12.995,41.166z M22.737,38.648c0-0.128,0-0.257,0-0.385
			c0.312-0.27,0.625-0.539,1.119-0.964c-0.727,0-1.152,0-1.66,0c0.231,0.403,0.397,0.693,0.564,0.983
			c-0.069,0.058-0.138,0.116-0.207,0.175c0.068,0.058,0.137,0.115,0.206,0.172c0,0.127,0,0.254,0.001,0.38
			c-0.034,0.045-0.067,0.09-0.101,0.135c0.026-0.051,0.052-0.103,0.079-0.153c0.074-0.058,0.148-0.115,0.222-0.173
			C22.885,38.762,22.811,38.705,22.737,38.648z M31.062,24.538c0.043,0.029,0.087,0.059,0.13,0.087
			c-0.05-0.022-0.1-0.045-0.149-0.067c-0.045-0.067-0.09-0.135-0.05-0.075C30.937,24.437,31,24.488,31.062,24.538z M13.002,37.565
			c-0.056,0.048-0.112,0.096-0.101,0.085c-0.009,0.012,0.036-0.046,0.081-0.105c0.034-0.043,0.067-0.086,0.101-0.129
			C13.057,37.466,13.029,37.516,13.002,37.565z M21.31,24.181c0.048,0.066,0.098,0.134,0.059,0.081
			c0.047,0.045-0.012-0.012-0.073-0.067c-0.05-0.061-0.1-0.121-0.066-0.081C21.189,24.08,21.249,24.13,21.31,24.181z M29.966,23.473
			c-0.048-0.064-0.096-0.13-0.059-0.079c-0.046-0.042,0.013,0.012,0.072,0.066c0.055,0.06,0.11,0.12,0.067,0.073
			C30.097,23.57,30.032,23.521,29.966,23.473z M23.479,40.095c-0.035,0.042-0.069,0.084-0.104,0.127
			c0.028-0.05,0.056-0.098,0.083-0.147c0.056-0.047,0.111-0.094,0.1-0.084C23.568,39.979,23.523,40.037,23.479,40.095z
			 M58.501,41.54c-0.121-0.123-0.24-0.245-0.361-0.367c-0.272-0.446-0.491-0.939-0.828-1.329c-0.706-0.816-1.537-1.528-2.206-2.371
			c-2.032-2.56-4.517-4.618-7.123-6.544c-0.356-0.263-0.819-0.382-1.3-0.599c-0.363,0.745-0.664,1.364-0.976,2.004
			c0.521,0.074,0.97,0.138,1.657,0.235c-0.498,0.267-0.723,0.388-1.21,0.649c3.489,1.366,6.054,3.65,8.828,5.62
			c1.068,0.758,2.115,1.545,3.172,2.318c0.123,0.121,0.245,0.241,0.367,0.362c0.045,0.03,0.09,0.062,0.135,0.092
			C58.604,41.587,58.553,41.563,58.501,41.54z M57.057,42.261c-0.12-0.122-0.241-0.244-0.361-0.366
			c-1.762-1.427-3.471-2.928-5.313-4.242c-0.688-0.491-1.674-0.612-2.547-0.775c-0.459-0.085-1.063-0.218-1.556,0.465
			c0.724,0.353,1.355,0.667,1.991,0.97c1.844,0.877,3.692,1.746,5.535,2.626c0.64,0.304,1.27,0.627,1.905,0.942
			c0.122,0.12,0.244,0.241,0.366,0.362c0.05,0.054,0.1,0.107,0.085,0.092C57.179,42.346,57.118,42.304,57.057,42.261z
			 M20.227,43.345c-0.175,0.157-0.349,0.314-0.523,0.472c0.074,0.056,0.149,0.111,0.224,0.166c0.093-0.219,0.186-0.438,0.279-0.658
			c0.037-0.041,0.075-0.083,0.112-0.125C20.288,43.248,20.257,43.296,20.227,43.345z M34.315,37.926
			c-0.179,0.153-0.357,0.306-0.536,0.46c0.076,0.056,0.152,0.11,0.228,0.167c0.097-0.216,0.193-0.431,0.289-0.646
			c0.035-0.044,0.069-0.088,0.103-0.132C34.371,37.826,34.343,37.876,34.315,37.926z M38.632,40.816
			c-0.139-0.197-0.278-0.394-0.417-0.591c-0.075,0.096-0.149,0.191-0.224,0.288c0.22,0.094,0.441,0.188,0.662,0.281
			c0.327,0.438,0.696,0.472,1.351-0.107C39.366,40.747,39,40.782,38.632,40.816z M38.648,24.904
			c-0.04-0.166-0.079-0.332-0.119-0.498c-0.07,0.036-0.14,0.072-0.209,0.108c0.105,0.134,0.21,0.267,0.316,0.399
			c-0.083,0.213-0.165,0.426-0.298,0.77c0.439,0.091,0.779,0.161,1.119,0.232c0.036-0.08,0.072-0.161,0.109-0.24
			C39.26,25.418,38.954,25.161,38.648,24.904z M26.729,44.429c-0.255-0.069-0.51-0.137-0.889-0.238
			c-0.069,0.575-0.12,1.003-0.21,1.748c0.488-0.691,0.784-1.109,1.08-1.529c0.033-0.045,0.067-0.091,0.101-0.136
			C26.784,44.325,26.756,44.377,26.729,44.429z M30.687,21.646c0.295,0.521,0.591,1.041,0.886,1.562
			c0.143-0.83,0.091-1.578-0.584-2.368c-0.14,0.412-0.211,0.62-0.281,0.827c-0.034,0.044-0.068,0.088-0.103,0.132
			C30.632,21.748,30.659,21.697,30.687,21.646z M35.761,26.368c-0.838-0.407-1.299-0.047-1.683,0.771
			c0.689,0.313,1.266,0.576,2.06,0.937c-0.167-0.727-0.282-1.228-0.397-1.728c0.029-0.043,0.057-0.087,0.085-0.13
			C35.805,26.269,35.784,26.318,35.761,26.368z M38.287,39.37c-0.29-0.029-0.579-0.057-0.757-0.074
			c-0.181-0.413-0.297-0.68-0.484-1.106c1.17,0.141,2.223,0.268,3.388,0.408c0.85-0.448,1.783-0.941,3.02-1.594
			c-0.851-0.256-1.42-0.426-1.998-0.6c-0.082,0.329-0.121,0.488-0.193,0.778c-0.858-0.253-1.71-0.503-2.822-0.83
			c-0.768,0.11-1.804,0.303-2.309,1.477c-0.094,0.22-0.491,0.31-0.748,0.459c-0.045-0.058-0.09-0.115-0.086-0.109
			c-0.006-0.006,0.05,0.042,0.105,0.089c-0.184,0.289-0.369,0.577-0.596,0.931c0.587,0.175,1.119,0.417,1.67,0.476
			c0.604,0.064,1.292,0.299,1.792-0.324c0.147-0.035,0.294-0.069,0.06-0.015C38.522,39.176,38.405,39.272,38.287,39.37z
			 M41.991,30.218c0.458,1.103,1.322,1.893,2.647,2.442c0.475-1.481-0.281-2.66-0.854-3.963c-0.678-0.178-1.34-0.353-2.002-0.527
			c-0.032,0.08-0.062,0.16-0.094,0.239c0.628,0.473,1.256,0.944,2.18,1.639C42.979,30.128,42.497,30.172,41.991,30.218z
			 M46.201,36.451c-1.062-0.793-1.913-1.427-2.807-2.093c-1.215-0.188-2.389-0.031-3.562,0.798c1.173,0.284,2.188,0.562,3.217,0.769
			C44.028,36.122,44.913,36.922,46.201,36.451z M48.95,35.998c-1.204-1.144-2.582-1.592-4.197-1.838
			c0.216,1.54,1.661,1.377,2.235,2.116C47.683,36.178,48.262,36.096,48.95,35.998z M31.524,33.599
			c-0.329,0.449-0.555,0.757-0.922,1.259c0.613,0.04,0.979,0.065,1.539,0.103C31.902,34.433,31.748,34.093,31.524,33.599z
			 M22.843,40.677c-0.136-0.031-0.272-0.062-0.408-0.095c-0.193,0.37-0.386,0.74-0.643,1.23c0.473,0,0.753,0,1.112,0
			C22.882,41.405,22.863,41.041,22.843,40.677z M37.593,29.147c0.488,0.581,1.005,0.477,1.634,0.345
			C38.792,28.778,38.295,28.792,37.593,29.147z M17.531,41.854c-1.169-0.155-1.169-0.155-1.582,0.829
			C16.524,42.382,16.908,42.18,17.531,41.854z M32.193,27.638c0.131-0.036,0.261-0.072,0.392-0.108
			c0.153-0.594-0.145-1.001-0.938-1.668C31.91,26.719,32.051,27.178,32.193,27.638z M20.112,36.677
			c0.631,0.207,0.981,0.321,1.636,0.535C21.349,36.312,21.086,35.947,20.112,36.677z M22.321,47.979
			c0.16,0.076,0.318,0.152,0.477,0.229c0.152-0.471,0.304-0.94,0.455-1.41c-0.108-0.041-0.216-0.082-0.324-0.122
			C22.727,47.11,22.524,47.545,22.321,47.979z M34.686,33.604c-0.723,0.033-1.147,0.053-1.907,0.088
			C33.539,34.076,33.954,34.445,34.686,33.604z M38.596,32.676c0.209-0.266,0.418-0.531,0.738-0.938
			C38.353,31.576,38.317,32.02,38.596,32.676z M22.434,26.138c0.665,0.673,1.049,0.107,1.773,0
			C23.476,26.138,23.051,26.138,22.434,26.138z M28.763,25.173c0.137-0.063,0.274-0.125,0.411-0.188
			c-0.133-0.199-0.267-0.399-0.4-0.599c-0.079,0.04-0.157,0.08-0.235,0.12C28.613,24.729,28.688,24.95,28.763,25.173z
			 M41.036,41.275c0.07,0.099,0.139,0.197,0.208,0.296c0.27-0.169,0.539-0.338,0.808-0.508c-0.044-0.071-0.088-0.143-0.131-0.215
			C41.625,40.991,41.331,41.133,41.036,41.275z M37.565,41.511c0.014-0.108,0.028-0.219,0.042-0.327
			c-0.294-0.04-0.588-0.078-0.882-0.117c-0.016,0.107-0.032,0.215-0.047,0.322C36.975,41.43,37.27,41.471,37.565,41.511z
			 M36.123,44.631c0.008-0.045,0.016-0.09,0.025-0.135c-0.277,0-0.554,0-0.831,0c0,0.045,0,0.09,0,0.135
			C35.584,44.631,35.854,44.631,36.123,44.631z M17.547,39.293c-0.099-0.044-0.223-0.146-0.292-0.118
			c-0.077,0.034-0.104,0.184-0.153,0.283c0.101,0.04,0.217,0.129,0.299,0.104C17.471,39.541,17.5,39.388,17.547,39.293z
			 M19.006,37.746c-0.053,0.111-0.106,0.222-0.16,0.332c0.241,0.039,0.482,0.077,0.723,0.116c0.014-0.055,0.028-0.109,0.042-0.165
			C19.409,37.935,19.208,37.841,19.006,37.746z M21.627,37.641c-0.094,0.113-0.188,0.227-0.282,0.34
			c0.154,0.075,0.307,0.15,0.46,0.226c0.065-0.085,0.13-0.17,0.196-0.255C21.876,37.848,21.752,37.744,21.627,37.641z
			 M40.233,32.265c0.059,0.064,0.116,0.129,0.174,0.192c0.104-0.117,0.211-0.232,0.305-0.356c0.01-0.015-0.056-0.086-0.086-0.131
			C40.495,32.068,40.364,32.166,40.233,32.265z M21.152,26.073c0.004,0.072,0.008,0.146,0.012,0.219
			c0.204-0.013,0.408-0.025,0.612-0.037c-0.004-0.07-0.008-0.142-0.012-0.212C21.56,26.053,21.355,26.063,21.152,26.073z
			 M45.055,29.932c0.084-0.035,0.169-0.071,0.253-0.107c-0.084-0.152-0.168-0.305-0.252-0.457c-0.068,0.031-0.137,0.063-0.206,0.095
			C44.918,29.619,44.987,29.775,45.055,29.932z M41.097,30.293c0.11-0.088,0.219-0.176,0.329-0.264
			c-0.115-0.108-0.23-0.217-0.345-0.325c-0.068,0.048-0.138,0.096-0.206,0.145C40.949,29.996,41.022,30.145,41.097,30.293z
			 M11.03,34.816c0.099,0.01,0.197,0.02,0.296,0.027C11.228,34.834,11.129,34.824,11.03,34.816z M13.208,35.204
			c0.097,0.009,0.193,0.019,0.29,0.026C13.401,35.222,13.304,35.212,13.208,35.204z M27.347,36.323
			c0.051,0.017,0.104,0.048,0.153,0.043c0.021-0.002,0.036-0.078,0.053-0.121c-0.051-0.016-0.104-0.046-0.153-0.04
			C27.378,36.208,27.364,36.282,27.347,36.323z M35.167,36.67c-0.111-0.024-0.171-0.037-0.232-0.051
			c0.013,0.028,0.024,0.08,0.04,0.081C35.019,36.704,35.065,36.688,35.167,36.67z M34.108,40.018
			c-0.021,0.353-0.026,0.438-0.03,0.523c0.025,0.001,0.05,0.002,0.075,0.003C34.146,40.456,34.139,40.369,34.108,40.018z
			 M36.225,40.202C36.065,40.27,36.145,40.236,36.225,40.202C36.137,40.214,36.047,40.226,36.225,40.202z M39.565,22.256
			c-0.02,0.001-0.039,0.003-0.059,0.004c0.006,0.091,0.013,0.181,0.02,0.27c0.021-0.001,0.042-0.002,0.062-0.004
			C39.58,22.436,39.572,22.346,39.565,22.256z M41.692,21.423c0.01-0.088,0.02-0.176,0.027-0.264
			C41.711,21.247,41.701,21.335,41.692,21.423z M37.77,45.679c0.094,0.009,0.188,0.017,0.282,0.023
			C37.958,45.694,37.864,45.686,37.77,45.679z M19.243,33.735c-0.052-0.018-0.106-0.049-0.157-0.045
			c-0.02,0.001-0.036,0.077-0.054,0.119c0.053,0.018,0.106,0.048,0.158,0.044C19.21,33.853,19.226,33.776,19.243,33.735z
			 M34.783,29.787c-0.053-0.016-0.107-0.044-0.159-0.042c-0.02,0.001-0.037,0.069-0.056,0.108c0.053,0.015,0.107,0.042,0.16,0.039
			C34.748,29.892,34.765,29.824,34.783,29.787z M39.489,34.456c-0.054-0.016-0.108-0.04-0.161-0.039
			c-0.019,0.001-0.035,0.067-0.053,0.104c0.054,0.014,0.108,0.038,0.162,0.036C39.456,34.557,39.472,34.491,39.489,34.456z
			 M31.664,39.555l-0.08-0.057l-0.014,0.089L31.664,39.555z"/>
		<path fill-rule="evenodd" clip-rule="evenodd" d="M44.774,20.949c1.637-0.575,2.645-0.443,4.214,0.589
			c-1.39,1.353-3.079,0.634-4.737,0.842c0.071-0.437,0.125-0.763,0.179-1.09l-0.022,0.021c0.128-0.129,0.258-0.258,0.387-0.387
			L44.774,20.949z"/>
		<path fill-rule="evenodd" clip-rule="evenodd" d="M18.769,20.943c0.194,0.131,0.405,0.243,0.577,0.398
			c0.124,0.113,0.196,0.283,0.38,0.563c-1.103,0.287-1.806-0.279-2.918-0.96c0.807,0,1.21,0,1.613,0L18.4,20.927
			c0.062,0.068,0.126,0.139,0.19,0.208c0.065-0.069,0.13-0.138,0.195-0.206L18.769,20.943z"/>
		<path fill-rule="evenodd" clip-rule="evenodd" d="M10.839,32.484c-0.623,0.109-1.245,0.219-1.936,0.339
			c0.713-0.821,0.713-0.821,1.919-0.317L10.839,32.484z"/>
		<path fill-rule="evenodd" clip-rule="evenodd" d="M42.61,24.192c0.363,0.721,0.726,1.442,1.087,2.164l0.004-0.003
			c-0.823-0.495-1.105-1.259-1.08-2.175L42.61,24.192z"/>
		<path fill-rule="evenodd" clip-rule="evenodd" d="M22.378,22.393c0.248-0.12,0.495-0.24,0.742-0.361L23.1,22.015
			c-0.128,0.533-0.257,1.066-0.386,1.6c-0.106-0.016-0.212-0.03-0.319-0.046c0-0.398,0-0.797,0-1.195L22.378,22.393z"/>
		<path fill-rule="evenodd" clip-rule="evenodd" d="M43.697,26.356c0.245,0.357,0.49,0.716,0.735,1.072l-0.022,0.019
			c-0.533-0.172-0.716-0.571-0.708-1.094L43.697,26.356z"/>
		<path fill-rule="evenodd" clip-rule="evenodd" d="M10.46,38.629c-0.122,0.181-0.243,0.361-0.504,0.751
			c-0.106-0.393-0.155-0.573-0.204-0.753l-0.022,0.02c0.249,0,0.497,0,0.746,0.001L10.46,38.629z"/>
		<path fill-rule="evenodd" clip-rule="evenodd" d="M25.65,24.177c-0.241-0.12-0.482-0.241-0.723-0.361l-0.018,0.021
			c0.24,0.12,0.481,0.241,0.722,0.362L25.65,24.177z"/>
		<path fill-rule="evenodd" clip-rule="evenodd" d="M24.927,23.815c-0.163-0.033-0.327-0.066-0.067-0.014
			c-0.209-0.149-0.08-0.057,0.05,0.035L24.927,23.815z"/>
		<path fill-rule="evenodd" clip-rule="evenodd" d="M23.12,22.031c0.031-0.168,0.063-0.336,0.094-0.504
			c0.057,0.03,0.114,0.061,0.171,0.091c-0.096,0.132-0.19,0.264-0.285,0.396L23.12,22.031z"/>
		<path fill-rule="evenodd" clip-rule="evenodd" d="M25.835,47.891c-0.008,0.095-0.018,0.189-0.028,0.283
			C25.816,48.079,25.826,47.984,25.835,47.891z"/>
		<path fill-rule="evenodd" clip-rule="evenodd" d="M11.347,29.487c-0.131-0.02-0.227-0.033-0.323-0.047
			c0.03-0.041,0.06-0.083,0.089-0.124C11.183,29.366,11.252,29.417,11.347,29.487z"/>
		<path fill-rule="evenodd" clip-rule="evenodd" d="M12.995,41.166c-0.048,0.055-0.097,0.109,0.001-0.002
			C12.888,41.266,12.941,41.216,12.995,41.166L12.995,41.166z"/>
		<path fill-rule="evenodd" clip-rule="evenodd" d="M37.925,23.112c0.122-0.122,0.244-0.243,0.366-0.365l-0.019-0.018
			c0,0.129,0,0.259,0,0.388l0.02-0.022c-0.128,0-0.255-0.001-0.383-0.001L37.925,23.112z"/>
		<path fill-rule="evenodd" clip-rule="evenodd" d="M18.424,20.563c-0.05-0.025-0.101-0.05-0.152-0.075
			c0.043,0.032,0.087,0.063,0.13,0.095L18.424,20.563z"/>
		<path fill-rule="evenodd" clip-rule="evenodd" d="M18.402,20.583c0.123,0.121,0.245,0.24,0.367,0.36l0.016-0.015
			c-0.128-0.001-0.257-0.001-0.385-0.002l0.021,0.019c0.001-0.127,0.002-0.254,0.003-0.382L18.402,20.583z"/>
		<path fill-rule="evenodd" clip-rule="evenodd" d="M9.393,37.545c-0.058-0.047-0.116-0.094-0.097-0.078
			c-0.015-0.02,0.031,0.039,0.078,0.098L9.393,37.545z"/>
		<path fill-rule="evenodd" clip-rule="evenodd" d="M11.18,38.987c-0.047,0.055-0.094,0.11-0.082,0.096
			c-0.015,0.012,0.043-0.032,0.101-0.076L11.18,38.987z"/>
		<path fill-rule="evenodd" clip-rule="evenodd" d="M9.374,38.626c-0.045,0.06-0.091,0.119-0.076,0.099
			c-0.02,0.017,0.038-0.031,0.095-0.08L9.374,38.626z"/>
		<path fill-rule="evenodd" clip-rule="evenodd" d="M45.136,38.27c-0.121,0.121-0.241,0.241-0.362,0.361l0.018,0.017
			c0.12-0.121,0.24-0.242,0.36-0.364L45.136,38.27z"/>
		<path fill-rule="evenodd" clip-rule="evenodd" d="M8.651,38.265c-0.046,0.058-0.093,0.116-0.078,0.097
			c-0.02,0.016,0.04-0.031,0.098-0.077L8.651,38.265z"/>
		<path fill-rule="evenodd" clip-rule="evenodd" d="M45.541,37.947c-0.135,0.107-0.27,0.215-0.405,0.322l0.016,0.014
			c0.105-0.13,0.209-0.259,0.314-0.389L45.541,37.947z"/>
		<path fill-rule="evenodd" clip-rule="evenodd" fill="none" d="M58.155,41.157c-1.057-0.773-2.104-1.561-3.172-2.318
			c-2.773-1.97-5.339-4.254-8.828-5.62c0.487-0.262,0.712-0.383,1.21-0.649c-0.687-0.098-1.136-0.161-1.657-0.235
			c0.312-0.64,0.613-1.259,0.976-2.004c0.481,0.217,0.944,0.336,1.3,0.599c2.606,1.926,5.09,3.984,7.123,6.544
			c0.669,0.843,1.5,1.555,2.206,2.371c0.337,0.39,0.556,0.883,0.828,1.329L58.155,41.157z"/>
		<path fill-rule="evenodd" clip-rule="evenodd" fill="none" d="M35.383,38.288c0.257-0.149,0.654-0.239,0.748-0.459
			c0.505-1.174,1.541-1.366,2.309-1.477c1.112,0.327,1.963,0.577,2.822,0.83c0.072-0.29,0.111-0.449,0.193-0.778
			c0.578,0.174,1.147,0.344,1.998,0.6c-1.236,0.652-2.17,1.146-3.02,1.594c-1.165-0.141-2.218-0.268-3.388-0.408
			c0.187,0.427,0.303,0.693,0.484,1.106c0.179,0.018,0.468,0.045,0.757,0.074l-0.019-0.021c-0.5,0.623-1.188,0.389-1.792,0.324
			c-0.552-0.059-1.083-0.301-1.67-0.476c0.227-0.354,0.412-0.642,0.596-0.931L35.383,38.288z"/>
		<path fill-rule="evenodd" clip-rule="evenodd" fill="none" d="M56.71,41.88c-0.635-0.315-1.265-0.639-1.905-0.942
			c-1.843-0.88-3.691-1.749-5.535-2.626c-0.636-0.303-1.268-0.617-1.991-0.97c0.493-0.683,1.096-0.55,1.556-0.465
			c0.874,0.163,1.859,0.284,2.547,0.775c1.842,1.314,3.551,2.815,5.313,4.242L56.71,41.88z"/>
		<path fill-rule="evenodd" clip-rule="evenodd" fill="none" d="M41.991,30.218c0.506-0.046,0.988-0.09,1.877-0.17
			c-0.924-0.694-1.552-1.166-2.18-1.639c0.031-0.079,0.062-0.159,0.094-0.239c0.662,0.175,1.324,0.35,2.002,0.527
			c0.573,1.303,1.33,2.481,0.854,3.963C43.312,32.11,42.448,31.32,41.991,30.218z"/>
		<path fill-rule="evenodd" clip-rule="evenodd" fill="none" d="M46.201,36.451c-1.289,0.471-2.173-0.329-3.152-0.526
			c-1.029-0.206-2.044-0.484-3.217-0.769c1.173-0.829,2.346-0.986,3.562-0.798C44.288,35.024,45.139,35.658,46.201,36.451z"/>
		<path fill-rule="evenodd" clip-rule="evenodd" fill="none" d="M43.702,26.354c-0.007,0.522,0.175,0.922,0.708,1.094
			c-0.023,0.114-0.047,0.229-0.103,0.51c-0.958-0.383-1.891-0.756-2.919-1.167c0.054-0.403,0.104-0.784,0.155-1.166l-0.019,0.02
			c0.366-0.488,0.732-0.977,1.098-1.465C42.596,25.095,42.879,25.858,43.702,26.354z"/>
		<path fill-rule="evenodd" clip-rule="evenodd" fill="none" d="M48.95,35.998c-0.688,0.098-1.267,0.18-1.962,0.278
			c-0.574-0.739-2.019-0.576-2.235-2.116C46.368,34.406,47.746,34.854,48.95,35.998z"/>
		<path fill-rule="evenodd" clip-rule="evenodd" fill="none" d="M45.466,37.895c-0.105,0.13-0.209,0.259-0.314,0.389
			c-0.121,0.122-0.241,0.243-0.36,0.364c-0.887,0-1.774,0-2.647,0C43.275,37.612,44.127,37.417,45.466,37.895z"/>
		<path fill-rule="evenodd" clip-rule="evenodd" fill="none" d="M35.741,26.349c0.115,0.5,0.229,1.001,0.397,1.728
			c-0.793-0.36-1.37-0.623-2.06-0.937c0.384-0.818,0.845-1.179,1.683-0.771L35.741,26.349z"/>
		<path fill-rule="evenodd" clip-rule="evenodd" fill="none" d="M30.707,21.667c0.07-0.207,0.141-0.415,0.281-0.827
			c0.675,0.79,0.727,1.538,0.584,2.368c-0.295-0.521-0.591-1.041-0.886-1.562L30.707,21.667z"/>
		<path fill-rule="evenodd" clip-rule="evenodd" fill="none" d="M31.524,33.599c0.224,0.494,0.378,0.834,0.617,1.361
			c-0.56-0.037-0.926-0.062-1.539-0.103C30.969,34.355,31.195,34.048,31.524,33.599z"/>
		<path fill-rule="evenodd" clip-rule="evenodd" fill="none" d="M22.843,40.677c0.02,0.364,0.039,0.729,0.061,1.136
			c-0.358,0-0.639,0-1.112,0c0.257-0.49,0.45-0.86,0.643-1.23C22.571,40.614,22.707,40.646,22.843,40.677z"/>
		<path fill-rule="evenodd" clip-rule="evenodd" fill="none" d="M37.593,29.147c0.702-0.355,1.198-0.369,1.634,0.345
			C38.598,29.624,38.082,29.729,37.593,29.147z"/>
		<path fill-rule="evenodd" clip-rule="evenodd" fill="none" d="M22.759,38.283c-0.167-0.29-0.333-0.58-0.564-0.983
			c0.508,0,0.933,0,1.66,0c-0.494,0.425-0.806,0.694-1.119,0.964L22.759,38.283z"/>
		<path fill-rule="evenodd" clip-rule="evenodd" fill="none" d="M17.531,41.854c-0.623,0.326-1.007,0.528-1.582,0.829
			C16.362,41.698,16.362,41.698,17.531,41.854z"/>
		<path fill-rule="evenodd" clip-rule="evenodd" fill="none" d="M26.71,44.409c-0.296,0.42-0.592,0.838-1.08,1.529
			c0.09-0.745,0.141-1.173,0.21-1.748c0.379,0.102,0.634,0.169,0.889,0.238L26.71,44.409z"/>
		<path fill-rule="evenodd" clip-rule="evenodd" fill="none" d="M32.193,27.638c-0.142-0.46-0.283-0.919-0.546-1.776
			c0.793,0.667,1.091,1.074,0.938,1.668C32.454,27.565,32.324,27.602,32.193,27.638z"/>
		<path fill-rule="evenodd" clip-rule="evenodd" fill="none" d="M20.112,36.677c0.974-0.729,1.237-0.364,1.636,0.535
			C21.093,36.998,20.744,36.884,20.112,36.677z"/>
		<path fill-rule="evenodd" clip-rule="evenodd" fill="none" d="M22.321,47.979c0.203-0.435,0.406-0.869,0.608-1.304
			c0.108,0.04,0.216,0.081,0.324,0.122c-0.151,0.47-0.303,0.939-0.455,1.41C22.639,48.132,22.48,48.056,22.321,47.979z"/>
		<path fill-rule="evenodd" clip-rule="evenodd" fill="none" d="M34.686,33.604c-0.732,0.841-1.147,0.472-1.907,0.088
			C33.539,33.657,33.963,33.638,34.686,33.604z"/>
		<path fill-rule="evenodd" clip-rule="evenodd" fill="none" d="M38.596,32.676c-0.278-0.656-0.243-1.1,0.738-0.938
			C39.014,32.145,38.805,32.41,38.596,32.676z"/>
		<path fill-rule="evenodd" clip-rule="evenodd" fill="none" d="M38.648,24.904c0.306,0.257,0.612,0.514,0.918,0.771
			c-0.037,0.079-0.073,0.16-0.109,0.24c-0.34-0.071-0.68-0.142-1.119-0.232c0.134-0.344,0.216-0.557,0.298-0.77L38.648,24.904z"/>
		<path fill-rule="evenodd" clip-rule="evenodd" fill="none" d="M49.833,18.038c-0.237,0.547-0.548,0.988-1.391,0.958
			c0.327-0.72,0.794-0.939,1.409-0.939L49.833,18.038z"/>
		<path fill-rule="evenodd" clip-rule="evenodd" fill="none" d="M22.434,26.138c0.617,0,1.042,0,1.773,0
			C23.482,26.245,23.098,26.811,22.434,26.138z"/>
		<path fill-rule="evenodd" clip-rule="evenodd" fill="none" d="M28.763,25.173c-0.075-0.223-0.15-0.444-0.225-0.667
			c0.079-0.04,0.157-0.08,0.235-0.12c0.133,0.199,0.267,0.399,0.4,0.599C29.037,25.048,28.9,25.109,28.763,25.173z"/>
		<path fill-rule="evenodd" clip-rule="evenodd" fill="none" d="M41.036,41.275c0.295-0.143,0.59-0.284,0.885-0.427
			c0.043,0.072,0.087,0.144,0.131,0.215c-0.27,0.17-0.539,0.339-0.808,0.508C41.174,41.473,41.105,41.374,41.036,41.275z"/>
		<path fill-rule="evenodd" clip-rule="evenodd" fill="none" d="M37.565,41.511c-0.296-0.04-0.591-0.081-0.887-0.122
			c0.015-0.107,0.031-0.215,0.047-0.322c0.293,0.039,0.587,0.077,0.882,0.117C37.593,41.292,37.579,41.402,37.565,41.511z"/>
		<path fill-rule="evenodd" clip-rule="evenodd" fill="none" d="M38.632,40.816c0.368-0.034,0.734-0.069,1.373-0.129
			c-0.655,0.579-1.024,0.545-1.351,0.107L38.632,40.816z"/>
		<path fill-rule="evenodd" clip-rule="evenodd" fill="none" d="M36.123,44.631c-0.269,0-0.538,0-0.807,0c0-0.045,0-0.09,0-0.135
			c0.277,0,0.554,0,0.831,0C36.139,44.541,36.131,44.586,36.123,44.631z"/>
		<path fill-rule="evenodd" clip-rule="evenodd" fill="none" d="M38.653,40.795c-0.221-0.094-0.442-0.188-0.662-0.281
			c0.075-0.097,0.149-0.192,0.224-0.288c0.139,0.197,0.278,0.394,0.417,0.591L38.653,40.795z"/>
		<path fill-rule="evenodd" clip-rule="evenodd" fill="none" d="M17.547,39.293c-0.047,0.095-0.076,0.248-0.146,0.27
			c-0.082,0.024-0.198-0.064-0.299-0.104c0.049-0.1,0.077-0.249,0.153-0.283C17.324,39.146,17.448,39.249,17.547,39.293z"/>
		<path fill-rule="evenodd" clip-rule="evenodd" fill="none" d="M19.006,37.746c0.202,0.095,0.403,0.188,0.605,0.283
			c-0.014,0.056-0.028,0.11-0.042,0.165c-0.241-0.039-0.482-0.077-0.723-0.116C18.899,37.968,18.953,37.857,19.006,37.746z"/>
		<path fill-rule="evenodd" clip-rule="evenodd" fill="none" d="M34.296,37.907c-0.096,0.215-0.192,0.43-0.289,0.646
			c-0.076-0.057-0.152-0.111-0.228-0.167c0.179-0.154,0.357-0.307,0.536-0.46L34.296,37.907z"/>
		<path fill-rule="evenodd" clip-rule="evenodd" fill="none" d="M10.476,38.647c-0.249-0.001-0.498-0.001-0.746-0.001
			c0.248-0.24,0.495-0.48,0.743-0.72l-0.02-0.021C10.46,38.153,10.468,38.399,10.476,38.647z"/>
		<path fill-rule="evenodd" clip-rule="evenodd" fill="none" d="M21.627,37.641c0.125,0.104,0.249,0.207,0.374,0.311
			c-0.065,0.085-0.13,0.17-0.196,0.255c-0.154-0.075-0.307-0.15-0.46-0.226C21.439,37.867,21.534,37.754,21.627,37.641z"/>
		<path fill-rule="evenodd" clip-rule="evenodd" fill="none" d="M40.233,32.265c0.131-0.099,0.262-0.196,0.394-0.295
			c0.03,0.045,0.096,0.116,0.086,0.131c-0.094,0.124-0.202,0.239-0.305,0.356C40.349,32.394,40.292,32.329,40.233,32.265z"/>
		<path fill-rule="evenodd" clip-rule="evenodd" fill="none" d="M20.207,43.324c-0.093,0.22-0.186,0.439-0.279,0.658
			c-0.075-0.055-0.15-0.11-0.224-0.166c0.174-0.157,0.348-0.314,0.523-0.472L20.207,43.324z"/>
		<path fill-rule="evenodd" clip-rule="evenodd" fill="none" d="M21.152,26.073c0.204-0.01,0.408-0.021,0.612-0.03
			c0.004,0.07,0.008,0.142,0.012,0.212c-0.204,0.012-0.408,0.024-0.612,0.037C21.16,26.219,21.156,26.146,21.152,26.073z"/>
		<path fill-rule="evenodd" clip-rule="evenodd" fill="none" d="M45.055,29.932c-0.068-0.156-0.137-0.312-0.205-0.47
			c0.069-0.031,0.137-0.063,0.206-0.095c0.084,0.152,0.168,0.305,0.252,0.457C45.224,29.86,45.14,29.896,45.055,29.932z"/>
		<path fill-rule="evenodd" clip-rule="evenodd" fill="none" d="M41.097,30.293c-0.074-0.148-0.148-0.297-0.222-0.444
			c0.068-0.049,0.138-0.097,0.206-0.145c0.115,0.108,0.23,0.217,0.345,0.325C41.316,30.117,41.207,30.205,41.097,30.293z"/>
		<path fill-rule="evenodd" clip-rule="evenodd" fill="none" d="M11.031,34.815c0.099,0.009,0.197,0.019,0.296,0.029
			C11.228,34.836,11.129,34.826,11.031,34.815z"/>
		<path fill-rule="evenodd" clip-rule="evenodd" fill="none" d="M13.208,35.203c0.097,0.009,0.194,0.019,0.29,0.028
			C13.4,35.223,13.304,35.213,13.208,35.203z"/>
		<path fill-rule="evenodd" clip-rule="evenodd" fill="none" d="M27.347,36.323c0.018-0.041,0.031-0.115,0.053-0.118
			c0.049-0.006,0.102,0.024,0.153,0.04c-0.018,0.043-0.032,0.119-0.053,0.121C27.451,36.371,27.398,36.34,27.347,36.323z"/>
		<path fill-rule="evenodd" clip-rule="evenodd" fill="none" d="M35.167,36.67c-0.101,0.018-0.148,0.034-0.193,0.03
			c-0.016-0.001-0.026-0.053-0.04-0.081C34.995,36.633,35.056,36.646,35.167,36.67z"/>
		<path fill-rule="evenodd" clip-rule="evenodd" fill="none" d="M38.637,24.914c-0.106-0.133-0.211-0.266-0.316-0.399
			c0.069-0.036,0.139-0.072,0.209-0.108c0.04,0.166,0.079,0.332,0.119,0.498L38.637,24.914z"/>
		<path fill-rule="evenodd" clip-rule="evenodd" fill="none" d="M37.908,23.094c0.128,0,0.255,0.001,0.383,0.001
			c-0.036,0.16-0.071,0.319-0.16,0.722C38.013,23.434,37.961,23.265,37.908,23.094z"/>
		<path fill-rule="evenodd" clip-rule="evenodd" fill="none" d="M38.287,39.37c0.118-0.098,0.235-0.194,0.042-0.035
			c0.234-0.055,0.087-0.021-0.06,0.015L38.287,39.37z"/>
		<path fill-rule="evenodd" clip-rule="evenodd" fill="none" d="M34.108,40.018c0.03,0.352,0.038,0.438,0.045,0.526
			c-0.025-0.001-0.05-0.002-0.075-0.003C34.083,40.456,34.087,40.37,34.108,40.018z"/>
		<path fill-rule="evenodd" clip-rule="evenodd" fill="none" d="M36.225,40.202C36.047,40.226,36.137,40.214,36.225,40.202
			C36.145,40.236,36.065,40.27,36.225,40.202z"/>
		<path fill-rule="evenodd" clip-rule="evenodd" fill="none" d="M39.565,22.256c0.007,0.09,0.015,0.18,0.023,0.27
			c-0.021,0.002-0.042,0.003-0.062,0.004c-0.007-0.089-0.013-0.179-0.02-0.27C39.526,22.259,39.545,22.257,39.565,22.256z"/>
		<path fill-rule="evenodd" clip-rule="evenodd" fill="none" d="M49.846,19.502c0.136-0.091,0.271-0.181,0.407-0.271
			c0.026,0.051,0.053,0.102,0.08,0.153c-0.168,0.032-0.337,0.063-0.505,0.096L49.846,19.502z"/>
		<path fill-rule="evenodd" clip-rule="evenodd" fill="none" d="M41.692,21.423c0.009-0.088,0.019-0.176,0.029-0.264
			C41.712,21.247,41.702,21.335,41.692,21.423z"/>
		<path fill-rule="evenodd" clip-rule="evenodd" fill="none" d="M37.77,45.678c0.094,0.008,0.188,0.017,0.282,0.024
			C37.958,45.695,37.864,45.688,37.77,45.678z"/>
		<path fill-rule="evenodd" clip-rule="evenodd" fill="none" d="M19.243,33.735c-0.018,0.041-0.033,0.117-0.053,0.118
			c-0.052,0.004-0.105-0.026-0.158-0.044c0.018-0.042,0.034-0.118,0.054-0.119C19.137,33.687,19.191,33.718,19.243,33.735z"/>
		<path fill-rule="evenodd" clip-rule="evenodd" fill="none" d="M34.783,29.787c-0.019,0.037-0.036,0.104-0.056,0.105
			c-0.053,0.003-0.106-0.024-0.16-0.039c0.019-0.039,0.037-0.107,0.056-0.108C34.676,29.743,34.73,29.771,34.783,29.787z"/>
		<path fill-rule="evenodd" clip-rule="evenodd" fill="none" d="M39.489,34.456c-0.018,0.035-0.034,0.101-0.052,0.101
			c-0.054,0.002-0.108-0.022-0.162-0.036c0.018-0.036,0.034-0.103,0.053-0.104C39.381,34.416,39.436,34.44,39.489,34.456z"/>
		<path fill-rule="evenodd" clip-rule="evenodd" fill="none" d="M57.057,42.261c0.061,0.043,0.123,0.085,0.105,0.073
			c0.015,0.016-0.035-0.038-0.085-0.092L57.057,42.261z"/>
		<path fill-rule="evenodd" clip-rule="evenodd" fill="none" d="M57.076,42.242C56.954,42.121,56.832,42,56.71,41.88l-0.015,0.015
			c0.12,0.122,0.241,0.244,0.361,0.366L57.076,42.242z"/>
		<path fill-rule="evenodd" clip-rule="evenodd" fill="none" d="M58.501,41.54c0.052,0.023,0.104,0.047,0.155,0.071
			c-0.045-0.03-0.089-0.062-0.135-0.092L58.501,41.54z"/>
		<path fill-rule="evenodd" clip-rule="evenodd" fill="none" d="M30.687,21.646c-0.027,0.051-0.055,0.102-0.082,0.152
			c0.034-0.044,0.068-0.088,0.103-0.132L30.687,21.646z"/>
		<path fill-rule="evenodd" clip-rule="evenodd" fill="none" d="M58.521,41.52c-0.122-0.121-0.244-0.241-0.367-0.362l-0.015,0.016
			c0.121,0.122,0.241,0.244,0.361,0.367L58.521,41.52z"/>
		<path fill-rule="evenodd" clip-rule="evenodd" fill="none" d="M38.271,23.117c0-0.129,0-0.259,0-0.388
			c0.067,0.063,0.135,0.126,0.195,0.183C38.401,22.98,38.336,23.049,38.271,23.117z"/>
		<path fill-rule="evenodd" clip-rule="evenodd" fill="none" d="M23.459,40.074c-0.028,0.05-0.056,0.098-0.083,0.147
			c0.035-0.043,0.069-0.085,0.104-0.127L23.459,40.074z"/>
		<path fill-rule="evenodd" clip-rule="evenodd" fill="none" d="M15.874,28.53c0.055,0.047,0.111,0.094,0.099,0.084
			c0.01,0.012-0.035-0.045-0.081-0.103L15.874,28.53z"/>
		<path fill-rule="evenodd" clip-rule="evenodd" fill="none" d="M19.484,59.22c-0.12,0.121-0.24,0.241-0.36,0.361l0.02,0.019
			c0.121-0.12,0.241-0.239,0.361-0.359L19.484,59.22z"/>
		<path fill-rule="evenodd" clip-rule="evenodd" fill="none" d="M19.505,59.24c0.027-0.05,0.056-0.101,0.083-0.149
			c-0.034,0.043-0.069,0.086-0.104,0.129L19.505,59.24z"/>
		<path fill-rule="evenodd" clip-rule="evenodd" fill="none" d="M19.505,50.932c0.024-0.052,0.048-0.104,0.072-0.154
			c-0.031,0.045-0.061,0.09-0.092,0.135L19.505,50.932z"/>
		<path fill-rule="evenodd" clip-rule="evenodd" fill="none" d="M26.729,44.429c0.027-0.052,0.054-0.104,0.082-0.155
			c-0.034,0.045-0.067,0.091-0.101,0.136L26.729,44.429z"/>
		<path fill-rule="evenodd" clip-rule="evenodd" fill="none" d="M44.796,20.924c-0.129,0.129-0.259,0.258-0.387,0.387
			C44.537,21.182,44.667,21.053,44.796,20.924z"/>
		<path fill-rule="evenodd" clip-rule="evenodd" fill="none" d="M20.227,43.345c0.031-0.049,0.062-0.097,0.092-0.146
			c-0.038,0.042-0.075,0.084-0.112,0.125L20.227,43.345z"/>
		<path fill-rule="evenodd" clip-rule="evenodd" fill="none" d="M29.966,23.473c0.065,0.049,0.13,0.098,0.081,0.061
			c0.042,0.047-0.013-0.014-0.067-0.073L29.966,23.473z"/>
		<path fill-rule="evenodd" clip-rule="evenodd" fill="none" d="M21.31,24.181c-0.061-0.051-0.12-0.101-0.08-0.067
			c-0.033-0.04,0.017,0.021,0.066,0.081L21.31,24.181z"/>
		<path fill-rule="evenodd" clip-rule="evenodd" fill="none" d="M34.315,37.926c0.028-0.05,0.056-0.1,0.084-0.15
			c-0.034,0.044-0.068,0.088-0.103,0.132L34.315,37.926z"/>
		<path fill-rule="evenodd" clip-rule="evenodd" fill="none" d="M21.296,24.194c0.061,0.056,0.12,0.112,0.073,0.067
			c0.039,0.053-0.011-0.015-0.059-0.081L21.296,24.194z"/>
		<path fill-rule="evenodd" clip-rule="evenodd" fill="none" d="M12.982,37.545c-0.045,0.06-0.09,0.117-0.081,0.105
			c-0.011,0.011,0.045-0.037,0.101-0.085L12.982,37.545z"/>
		<path fill-rule="evenodd" clip-rule="evenodd" fill="none" d="M11.562,37.923c0.023-0.05,0.047-0.1,0.07-0.149
			c-0.029,0.044-0.06,0.087-0.089,0.131L11.562,37.923z"/>
		<path fill-rule="evenodd" clip-rule="evenodd" fill="none" d="M10.473,37.927c0.03-0.052,0.061-0.104,0.091-0.154
			c-0.037,0.044-0.074,0.089-0.111,0.134L10.473,37.927z"/>
		<path fill-rule="evenodd" clip-rule="evenodd" fill="none" d="M31.062,24.538c-0.063-0.05-0.125-0.102-0.069-0.056
			c-0.04-0.06,0.005,0.008,0.05,0.075L31.062,24.538z"/>
		<path fill-rule="evenodd" clip-rule="evenodd" fill="none" d="M13.002,37.565c0.027-0.05,0.054-0.1,0.081-0.149
			c-0.034,0.043-0.067,0.086-0.101,0.129L13.002,37.565z"/>
		<path fill-rule="evenodd" clip-rule="evenodd" fill="none" d="M31.044,24.558c0.049,0.022,0.099,0.045,0.149,0.067
			c-0.043-0.028-0.087-0.058-0.13-0.087L31.044,24.558z"/>
		<path fill-rule="evenodd" clip-rule="evenodd" fill="none" d="M10.096,33.931c-0.049,0.064-0.099,0.129-0.075,0.098
			c-0.03,0.025,0.031-0.026,0.094-0.079L10.096,33.931z"/>
		<path fill-rule="evenodd" clip-rule="evenodd" fill="none" d="M41.543,25.624c-0.053-0.045-0.107-0.091-0.093-0.079
			c-0.011-0.015,0.032,0.042,0.074,0.099L41.543,25.624z"/>
		<path fill-rule="evenodd" clip-rule="evenodd" fill="none" d="M35.761,26.368c0.022-0.05,0.044-0.1,0.065-0.149
			c-0.028,0.043-0.057,0.087-0.085,0.13L35.761,26.368z"/>
		<path fill-rule="evenodd" clip-rule="evenodd" fill="none" d="M23.479,40.095c0.044-0.058,0.088-0.115,0.08-0.104
			c0.011-0.01-0.044,0.037-0.1,0.084L23.479,40.095z"/>
		<path fill-rule="evenodd" clip-rule="evenodd" fill="none" d="M12.642,40.095c0.024-0.051,0.048-0.101,0.072-0.151
			c-0.031,0.044-0.061,0.089-0.091,0.133L12.642,40.095z"/>
		<polygon fill-rule="evenodd" clip-rule="evenodd" fill="none" points="31.664,39.555 31.571,39.587 31.584,39.498 		"/>
		<path fill-rule="evenodd" clip-rule="evenodd" fill="none" d="M22.737,38.991c-0.026,0.051-0.053,0.103-0.079,0.153
			c0.034-0.045,0.067-0.09,0.101-0.135L22.737,38.991z"/>
		<path fill-rule="evenodd" clip-rule="evenodd" fill="none" d="M29.979,23.46c-0.06-0.055-0.119-0.108-0.072-0.066
			c-0.037-0.051,0.011,0.015,0.059,0.079L29.979,23.46z"/>
		<path fill-rule="evenodd" clip-rule="evenodd" fill="none" d="M22.737,38.648c0.074,0.057,0.148,0.113,0.222,0.17
			c-0.074,0.058-0.148,0.115-0.222,0.173l0.022,0.019c-0.001-0.126-0.001-0.253-0.001-0.38L22.737,38.648z"/>
		<path fill-rule="evenodd" clip-rule="evenodd" fill="none" d="M22.758,38.63c-0.068-0.057-0.137-0.114-0.206-0.172
			c0.069-0.059,0.138-0.117,0.207-0.175l-0.023-0.02c0,0.128,0,0.257,0,0.385L22.758,38.63z"/>
		<path fill-rule="evenodd" clip-rule="evenodd" fill="none" d="M35.403,38.268c-0.056-0.047-0.112-0.095-0.105-0.089
			c-0.004-0.006,0.041,0.052,0.086,0.109L35.403,38.268z"/>
		<path fill-rule="evenodd" clip-rule="evenodd" fill="none" d="M11.196,38.287c0.122-0.121,0.243-0.243,0.365-0.364l-0.02-0.019
			c-0.122,0.121-0.243,0.242-0.365,0.363L11.196,38.287z"/>
		<path fill-rule="evenodd" clip-rule="evenodd" fill="none" d="M18.4,20.927c0.128,0.001,0.257,0.001,0.385,0.002
			c-0.064,0.068-0.13,0.137-0.195,0.206C18.526,21.065,18.462,20.995,18.4,20.927z"/>
	</g>
</g>
</svg>
